<svg width="187" height="50" viewBox="0 0 187 50" fill="none" xmlns="http://www.w3.org/2000/svg">
<path fill-rule="evenodd" clip-rule="evenodd" d="M14.6835 46.429C16.209 47.0945 19.8998 48.3444 21.5565 48.8151C36.5984 52.9055 49.7867 44.6273 53.3954 31.6256C57.0369 18.5427 47.3097 4.53463 34.8104 1.14217C19.7685 -2.94825 4.64467 4.29115 1.01953 17.374C-1.0801 24.938 0.0845409 32.1288 4.3166 38.1832L1.03593 50L14.6835 46.429ZM5.16957 18.7537C8.20419 7.87838 20.6051 1.77521 33.6622 5.32998C44.0947 8.17056 52.1487 19.8575 49.1305 30.7328C46.0959 41.6081 35.4665 48.1983 22.7211 44.7409C20.9004 44.2539 17.0456 42.9554 15.4053 42.16L6.94114 44.8545L8.95875 37.6151C4.98914 31.9989 3.25038 25.6847 5.16957 18.7537Z" fill="url(#paint0_linear_8003_12051)"/>
<path d="M31.4953 14.3549V22.3247C31.4953 22.5033 31.3477 22.6494 31.1673 22.6494H22.9984C22.818 22.6494 22.6703 22.5033 22.6703 22.3247V14.3711C22.6703 14.1926 22.5227 14.0465 22.3423 14.0465H18.6679C18.4875 14.0465 18.3398 14.1926 18.3398 14.3711V22.6494V26.9346V35.6348C18.3398 35.8134 18.4875 35.9595 18.6679 35.9595H22.3423C22.5227 35.9595 22.6703 35.8134 22.6703 35.6348V27.2592C22.6703 27.0807 22.818 26.9346 22.9984 26.9346H31.1673C31.3477 26.9346 31.4953 27.0807 31.4953 27.2592V35.6186C31.4953 35.7972 31.643 35.9433 31.8234 35.9433H35.4977C35.6782 35.9433 35.8258 35.7972 35.8258 35.6186V14.3549C35.8258 14.1764 35.6782 14.0303 35.4977 14.0303H31.8234C31.643 14.0303 31.4953 14.1764 31.4953 14.3549Z" fill="url(#paint1_linear_8003_12051)"/>
<path d="M92.8134 12.0664H98.2101L92.3705 37.8263H84.6774L80.5437 15.816L76.2625 37.8263H68.5201L62.8281 12.0664H68.3725L72.6537 33.8495L76.935 12.0664H84.2673L88.4337 33.8171L92.8134 12.0664Z" fill="#EEF8EB"/>
<path d="M96.8984 32.5671C96.8984 29.0123 99.6214 26.9671 105.084 26.4639L110.185 25.9445V24.9868C110.185 23.9642 109.873 23.1364 109.25 22.5196C108.627 21.9027 107.692 21.5943 106.429 21.5943C105.313 21.5943 104.395 21.8378 103.689 22.3248C102.984 22.8117 102.59 23.5422 102.525 24.4998H97.9811C98.0631 22.2598 98.8668 20.6367 100.442 19.6303C102 18.6077 104.001 18.1045 106.429 18.1045C109.234 18.1045 111.383 18.77 112.908 20.0848C114.417 21.4158 115.172 23.3798 115.172 26.0094V37.8262H110.53V34.3363C109.168 36.9659 106.79 38.2807 103.427 38.2807C101.327 38.2807 99.7034 37.7612 98.588 36.6899C97.4561 35.6349 96.8984 34.2552 96.8984 32.5671ZM101.852 32.3073C101.852 33.0702 102.115 33.6871 102.656 34.1415C103.181 34.6123 103.968 34.8395 105.018 34.8395C106.56 34.8395 107.807 34.3526 108.758 33.3787C109.709 32.4047 110.185 31.2198 110.185 29.7914V28.9474L105.723 29.3856C103.148 29.6453 101.852 30.6192 101.852 32.3073Z" fill="#EEF8EB"/>
<path d="M117.699 37.8262V10.7515H122.686V21.3509C124.08 19.192 126.229 18.1045 129.165 18.1045C131.396 18.1045 133.069 18.7375 134.201 20.0036C135.333 21.2697 135.891 23.1201 135.891 25.5387V37.8262H130.937V27.0482C130.937 25.425 130.641 24.2077 130.067 23.3798C129.477 22.552 128.542 22.1462 127.23 22.1462C125.77 22.1462 124.638 22.6494 123.867 23.6395C123.096 24.6297 122.702 25.9769 122.702 27.665V37.8262H117.699Z" fill="#EEF8EB"/>
<path d="M137.48 28.1845C137.48 24.8407 138.399 22.3248 140.22 20.6367C142.041 18.9485 144.485 18.1045 147.536 18.1045C153.884 18.1045 157.05 21.7567 157.05 29.0772V29.6291H142.5C142.68 31.3497 143.222 32.632 144.157 33.4923C145.092 34.3526 146.289 34.7746 147.782 34.7746C149.816 34.7746 151.226 33.9468 152.014 32.2749L156.771 32.5671C156.279 34.385 155.245 35.781 153.687 36.7873C152.129 37.7775 150.16 38.2807 147.765 38.2807C144.583 38.2807 142.073 37.4366 140.236 35.7647C138.399 34.0766 137.48 31.5445 137.48 28.1845ZM142.5 26.4964H152.129C152.03 24.9543 151.571 23.7532 150.767 22.8929C149.963 22.0326 148.881 21.6106 147.519 21.6106C146.158 21.6106 145.026 22.0164 144.157 22.8442C143.287 23.6558 142.73 24.8732 142.5 26.4964Z" fill="#EEF8EB"/>
<path d="M158.754 10.7515H163.741V37.8262H158.754V10.7515Z" fill="#EEF8EB"/>
<path d="M166.449 45.1954V18.5428H171.091V22.0813C172.486 19.4355 174.667 18.1045 177.669 18.1045C180.13 18.1045 182.131 19.0135 183.673 20.8152C185.215 22.6169 186.002 25.0842 186.002 28.2007C186.002 31.3172 185.231 33.7844 183.673 35.5862C182.131 37.3879 180.13 38.2969 177.702 38.2969C174.93 38.2969 172.83 37.1282 171.419 34.8071V45.2279H166.449V45.1954ZM172.551 23.6558C171.665 24.8082 171.206 26.3178 171.206 28.1845C171.206 30.0511 171.649 31.5607 172.551 32.7131C173.437 33.8656 174.651 34.45 176.16 34.45C177.669 34.45 178.883 33.8818 179.769 32.7131C180.655 31.5607 181.114 30.0511 181.114 28.1845C181.114 26.3178 180.671 24.8082 179.769 23.6558C178.883 22.5033 177.669 21.919 176.16 21.919C174.651 21.9352 173.453 22.5033 172.551 23.6558Z" fill="#EEF8EB"/>
<defs>
<linearGradient id="paint0_linear_8003_12051" x1="0.0912447" y1="20.7219" x2="52.3953" y2="35.2545" gradientUnits="userSpaceOnUse">
<stop offset="6.92613e-08" stop-color="#01F964"/>
<stop offset="0.5324" stop-color="#00E08B"/>
<stop offset="1" stop-color="#01CFA6"/>
</linearGradient>
<linearGradient id="paint1_linear_8003_12051" x1="18.3482" y1="25.003" x2="35.8252" y2="25.003" gradientUnits="userSpaceOnUse">
<stop offset="6.92613e-08" stop-color="#01F964"/>
<stop offset="0.5324" stop-color="#00E08B"/>
<stop offset="1" stop-color="#01CFA6"/>
</linearGradient>
</defs>
</svg>
